<?xml version="1.0" encoding="UTF-8" standalone="no"?>
<!DOCTYPE svg PUBLIC "-//W3C//DTD SVG 1.1//EN"
 "http://www.w3.org/Graphics/SVG/1.1/DTD/svg11.dtd">
<!-- Generated by graphviz version 14.1.2 (20260124.0452)
 -->
<!-- Title: DatabaseSchema Pages: 1 -->
<svg width="623pt" height="384pt"
 viewBox="0.00 0.00 623.00 384.00" xmlns="http://www.w3.org/2000/svg" xmlns:xlink="http://www.w3.org/1999/xlink">
<g id="graph0" class="graph" transform="scale(1 1) rotate(0) translate(4 380)">
<title>DatabaseSchema</title>
<polygon fill="white" stroke="none" points="-4,4 -4,-380 619.25,-380 619.25,4 -4,4"/>
<!-- User -->
<g id="node1" class="node">
<title>User</title>
<path fill="#f8fafc" stroke="#334155" d="M23.25,-247.5C23.25,-247.5 167.75,-247.5 167.75,-247.5 173.75,-247.5 179.75,-253.5 179.75,-259.5 179.75,-259.5 179.75,-363.5 179.75,-363.5 179.75,-369.5 173.75,-375.5 167.75,-375.5 167.75,-375.5 23.25,-375.5 23.25,-375.5 17.25,-375.5 11.25,-369.5 11.25,-363.5 11.25,-363.5 11.25,-259.5 11.25,-259.5 11.25,-253.5 17.25,-247.5 23.25,-247.5"/>
<text xml:space="preserve" text-anchor="middle" x="38" y="-305.7" font-family="Helvetica,sans-Serif" font-size="14.00">USER</text>
<polyline fill="none" stroke="#334155" points="64.75,-247.5 64.75,-375.5"/>
<text xml:space="preserve" text-anchor="start" x="72.75" y="-358.2" font-family="Helvetica,sans-Serif" font-size="14.00">id (PK)</text>
<text xml:space="preserve" text-anchor="start" x="72.75" y="-343.2" font-family="Helvetica,sans-Serif" font-size="14.00">name</text>
<text xml:space="preserve" text-anchor="start" x="72.75" y="-328.2" font-family="Helvetica,sans-Serif" font-size="14.00">email (UNIQUE)</text>
<text xml:space="preserve" text-anchor="start" x="72.75" y="-313.2" font-family="Helvetica,sans-Serif" font-size="14.00">language</text>
<text xml:space="preserve" text-anchor="start" x="72.75" y="-298.2" font-family="Helvetica,sans-Serif" font-size="14.00">age</text>
<text xml:space="preserve" text-anchor="start" x="72.75" y="-283.2" font-family="Helvetica,sans-Serif" font-size="14.00">platform</text>
<text xml:space="preserve" text-anchor="start" x="72.75" y="-268.2" font-family="Helvetica,sans-Serif" font-size="14.00">created_at</text>
<text xml:space="preserve" text-anchor="start" x="72.75" y="-253.2" font-family="Helvetica,sans-Serif" font-size="14.00">updated_at</text>
</g>
<!-- UserGames -->
<g id="node3" class="node">
<title>UserGames</title>
<path fill="#f8fafc" stroke="#334155" d="M342.88,-236.5C342.88,-236.5 554.12,-236.5 554.12,-236.5 560.12,-236.5 566.12,-242.5 566.12,-248.5 566.12,-248.5 566.12,-322.5 566.12,-322.5 566.12,-328.5 560.12,-334.5 554.12,-334.5 554.12,-334.5 342.88,-334.5 342.88,-334.5 336.88,-334.5 330.88,-328.5 330.88,-322.5 330.88,-322.5 330.88,-248.5 330.88,-248.5 330.88,-242.5 336.88,-236.5 342.88,-236.5"/>
<text xml:space="preserve" text-anchor="middle" x="386.5" y="-279.7" font-family="Helvetica,sans-Serif" font-size="14.00">USER_GAMES</text>
<polyline fill="none" stroke="#334155" points="442.12,-236.5 442.12,-334.5"/>
<text xml:space="preserve" text-anchor="start" x="450.12" y="-317.2" font-family="Helvetica,sans-Serif" font-size="14.00">user_id (PK, FK)</text>
<text xml:space="preserve" text-anchor="start" x="450.12" y="-302.2" font-family="Helvetica,sans-Serif" font-size="14.00">game_id (PK, FK)</text>
<text xml:space="preserve" text-anchor="start" x="450.12" y="-287.2" font-family="Helvetica,sans-Serif" font-size="14.00">status</text>
<text xml:space="preserve" text-anchor="start" x="450.12" y="-272.2" font-family="Helvetica,sans-Serif" font-size="14.00">rating</text>
<text xml:space="preserve" text-anchor="start" x="450.12" y="-257.2" font-family="Helvetica,sans-Serif" font-size="14.00">playtime_hours</text>
<text xml:space="preserve" text-anchor="start" x="450.12" y="-242.2" font-family="Helvetica,sans-Serif" font-size="14.00">created_at</text>
</g>
<!-- User&#45;&gt;UserGames -->
<g id="edge1" class="edge">
<title>User&#45;&gt;UserGames</title>
<path fill="none" stroke="#475569" d="M180.05,-291C180.05,-291 321.09,-291 321.09,-291"/>
<polygon fill="#475569" stroke="#475569" points="321.09,-293.8 329.09,-291 321.09,-288.2 321.09,-293.8"/>
<text xml:space="preserve" text-anchor="middle" x="236.38" y="-313.2" font-family="Helvetica,sans-Serif" font-size="14.00">1:n</text>
</g>
<!-- Games -->
<g id="node2" class="node">
<title>Games</title>
<path fill="#f8fafc" stroke="#334155" d="M12,-0.5C12,-0.5 179,-0.5 179,-0.5 185,-0.5 191,-6.5 191,-12.5 191,-12.5 191,-176.5 191,-176.5 191,-182.5 185,-188.5 179,-188.5 179,-188.5 12,-188.5 12,-188.5 6,-188.5 0,-182.5 0,-176.5 0,-176.5 0,-12.5 0,-12.5 0,-6.5 6,-0.5 12,-0.5"/>
<text xml:space="preserve" text-anchor="middle" x="33.12" y="-88.7" font-family="Helvetica,sans-Serif" font-size="14.00">GAMES</text>
<polyline fill="none" stroke="#334155" points="66.25,-0.5 66.25,-188.5"/>
<text xml:space="preserve" text-anchor="start" x="74.25" y="-171.2" font-family="Helvetica,sans-Serif" font-size="14.00">id (PK)</text>
<text xml:space="preserve" text-anchor="start" x="74.25" y="-156.2" font-family="Helvetica,sans-Serif" font-size="14.00">steam_appid</text>
<text xml:space="preserve" text-anchor="start" x="74.25" y="-141.2" font-family="Helvetica,sans-Serif" font-size="14.00">game_name</text>
<text xml:space="preserve" text-anchor="start" x="74.25" y="-126.2" font-family="Helvetica,sans-Serif" font-size="14.00">release_date</text>
<text xml:space="preserve" text-anchor="start" x="74.25" y="-111.2" font-family="Helvetica,sans-Serif" font-size="14.00">recommendations</text>
<text xml:space="preserve" text-anchor="start" x="74.25" y="-96.2" font-family="Helvetica,sans-Serif" font-size="14.00">description</text>
<text xml:space="preserve" text-anchor="start" x="74.25" y="-81.2" font-family="Helvetica,sans-Serif" font-size="14.00">genres</text>
<text xml:space="preserve" text-anchor="start" x="74.25" y="-66.2" font-family="Helvetica,sans-Serif" font-size="14.00">usk</text>
<text xml:space="preserve" text-anchor="start" x="74.25" y="-51.2" font-family="Helvetica,sans-Serif" font-size="14.00">price</text>
<text xml:space="preserve" text-anchor="start" x="74.25" y="-36.2" font-family="Helvetica,sans-Serif" font-size="14.00">platforms</text>
<text xml:space="preserve" text-anchor="start" x="74.25" y="-21.2" font-family="Helvetica,sans-Serif" font-size="14.00">created_at</text>
<text xml:space="preserve" text-anchor="start" x="74.25" y="-6.2" font-family="Helvetica,sans-Serif" font-size="14.00">updated_at</text>
</g>
<!-- Games&#45;&gt;UserGames -->
<g id="edge2" class="edge">
<title>Games&#45;&gt;UserGames</title>
<path fill="none" stroke="#475569" d="M185.25,-188.84C185.25,-217.47 185.25,-241.5 185.25,-241.5 185.25,-241.5 321.22,-241.5 321.22,-241.5"/>
<polygon fill="#475569" stroke="#475569" points="321.22,-244.3 329.22,-241.5 321.22,-238.7 321.22,-244.3"/>
<text xml:space="preserve" text-anchor="middle" x="236.38" y="-205.2" font-family="Helvetica,sans-Serif" font-size="14.00">1:n</text>
</g>
<!-- GameSystemRequirement -->
<g id="node4" class="node">
<title>GameSystemRequirement</title>
<path fill="#f8fafc" stroke="#334155" d="M293.75,-38C293.75,-38 603.25,-38 603.25,-38 609.25,-38 615.25,-44 615.25,-50 615.25,-50 615.25,-139 615.25,-139 615.25,-145 609.25,-151 603.25,-151 603.25,-151 293.75,-151 293.75,-151 287.75,-151 281.75,-145 281.75,-139 281.75,-139 281.75,-50 281.75,-50 281.75,-44 287.75,-38 293.75,-38"/>
<text xml:space="preserve" text-anchor="middle" x="396.62" y="-88.7" font-family="Helvetica,sans-Serif" font-size="14.00">GAME_SYSTEM_REQUIREMENT</text>
<polyline fill="none" stroke="#334155" points="511.5,-38 511.5,-151"/>
<text xml:space="preserve" text-anchor="start" x="519.5" y="-133.7" font-family="Helvetica,sans-Serif" font-size="14.00">id (PK)</text>
<text xml:space="preserve" text-anchor="start" x="519.5" y="-118.7" font-family="Helvetica,sans-Serif" font-size="14.00">game_id (FK)</text>
<text xml:space="preserve" text-anchor="start" x="519.5" y="-103.7" font-family="Helvetica,sans-Serif" font-size="14.00">platform</text>
<text xml:space="preserve" text-anchor="start" x="519.5" y="-88.7" font-family="Helvetica,sans-Serif" font-size="14.00">minimum</text>
<text xml:space="preserve" text-anchor="start" x="519.5" y="-73.7" font-family="Helvetica,sans-Serif" font-size="14.00">recommended</text>
<text xml:space="preserve" text-anchor="start" x="519.5" y="-58.7" font-family="Helvetica,sans-Serif" font-size="14.00">created_at</text>
<text xml:space="preserve" text-anchor="start" x="519.5" y="-43.7" font-family="Helvetica,sans-Serif" font-size="14.00">updated_at</text>
</g>
<!-- Games&#45;&gt;GameSystemRequirement -->
<g id="edge3" class="edge">
<title>Games&#45;&gt;GameSystemRequirement</title>
<path fill="none" stroke="#475569" d="M191.49,-94.5C191.49,-94.5 272.01,-94.5 272.01,-94.5"/>
<polygon fill="#475569" stroke="#475569" points="272.01,-97.3 280.01,-94.5 272.01,-91.7 272.01,-97.3"/>
<text xml:space="preserve" text-anchor="middle" x="236.38" y="-96.2" font-family="Helvetica,sans-Serif" font-size="14.00">1:n</text>
</g>
</g>
</svg>
